<?xml version="1.0" encoding="UTF-8" standalone="no"?>
<!DOCTYPE svg PUBLIC "-//W3C//DTD SVG 1.1//EN"
 "http://www.w3.org/Graphics/SVG/1.1/DTD/svg11.dtd">
<!-- Generated by graphviz version 2.42.4 (0)
 -->
<!-- Title: G Pages: 1 -->
<svg width="532pt" height="1232pt"
 viewBox="0.00 0.00 531.84 1232.00" xmlns="http://www.w3.org/2000/svg" xmlns:xlink="http://www.w3.org/1999/xlink"><style>text, .node text { font-family: monospace !important; }
    .node {
        transition: transform 0.3s ease-in-out, filter 0.4s ease-in-out;
        animation: fadeIn 0.5s ease-out forwards, pulseGlow 4s infinite alternate;
        opacity: 0;
        filter: drop-shadow(0 0 4px #00ff9966);
        color: #FFFFFF;
    }
    .node:hover {
        transform: scale(1.1);
        filter: drop-shadow(0 0 10px #00ff99);
        cursor: pointer;
    }
    .edge {
        stroke-dasharray: 8, 4;
        animation: dash 10s linear infinite, glow 3s infinite alternate;
        stroke: #32CD32;
    }
    svg {
        background-color: #121212;
    }
    @keyframes fadeIn { to { opacity: 1; } }
    @keyframes pulseGlow {
        0% { filter: drop-shadow(0 0 4px #00ff9999); opacity: 0.9; }
        100% { filter: drop-shadow(0 0 6px #00ff99); opacity: 1; }
    }
    @keyframes glow {
        from { stroke-opacity: 0.7; }
        to { stroke-opacity: 1; }
    }
    @keyframes dash { to { stroke-dashoffset: -100; } }
    </style>
<g id="graph0" class="graph" transform="scale(1 1) rotate(0) translate(4 1228)">
<title>G</title>
<polygon fill="#121212" stroke="transparent" points="-4,4 -4,-1228 527.84,-1228 527.84,4 -4,4"/>
<!-- node_1_config -->
<g id="node1" class="node">
<title>node_1_config</title>
<path fill="#1e90ff" stroke="#00ffcc" stroke-width="1.5" d="M77.17,-117C77.17,-117 47.17,-117 47.17,-117 41.17,-117 35.17,-111 35.17,-105 35.17,-105 35.17,-93 35.17,-93 35.17,-87 41.17,-81 47.17,-81 47.17,-81 77.17,-81 77.17,-81 83.17,-81 89.17,-87 89.17,-93 89.17,-93 89.17,-105 89.17,-105 89.17,-111 83.17,-117 77.17,-117"/>
<text text-anchor="middle" x="62.17" y="-95.9" font-family="Arial" font-size="12.00" fill="#ffffff">config/</text>
</g>
<!-- node_2___init___py -->
<g id="node2" class="node">
<title>node_2___init___py</title>
<ellipse fill="#444444" stroke="#00ffcc" stroke-width="1.5" cx="239.14" cy="-180" rx="46.34" ry="18"/>
<text text-anchor="middle" x="239.14" y="-176.9" font-family="Arial" font-size="12.00" fill="#ffffff">__init__.py</text>
</g>
<!-- node_1_config&#45;&gt;node_2___init___py -->
<g id="edge1" class="edge">
<title>node_1_config&#45;&gt;node_2___init___py</title>
<path fill="none" stroke="#32cd32" stroke-width="1.2" d="M89.35,-115.17C108.55,-126.63 135.51,-141.89 160.35,-153 170.64,-157.6 181.97,-161.93 192.73,-165.72"/>
<polygon fill="#32cd32" stroke="#32cd32" stroke-width="1.2" points="191.8,-169.1 202.4,-169.04 194.08,-162.48 191.8,-169.1"/>
</g>
<!-- node_3_mermaid_py -->
<g id="node3" class="node">
<title>node_3_mermaid_py</title>
<ellipse fill="#444444" stroke="#ffff00" stroke-width="1.5" cx="239.14" cy="-126" rx="48.76" ry="18"/>
<text text-anchor="middle" x="239.14" y="-122.9" font-family="Arial" font-size="12.00" fill="#ffffff">mermaid.py</text>
</g>
<!-- node_1_config&#45;&gt;node_3_mermaid_py -->
<g id="edge2" class="edge">
<title>node_1_config&#45;&gt;node_3_mermaid_py</title>
<path fill="none" stroke="#32cd32" stroke-width="1.2" d="M89.37,-103.04C114.32,-106.89 152.62,-112.8 184.12,-117.66"/>
<polygon fill="#32cd32" stroke="#32cd32" stroke-width="1.2" points="183.66,-121.13 194.08,-119.2 184.73,-114.22 183.66,-121.13"/>
</g>
<!-- node_4_repository_py -->
<g id="node4" class="node">
<title>node_4_repository_py</title>
<ellipse fill="#444444" stroke="#00ff99" stroke-width="1.5" cx="239.14" cy="-72" rx="51.92" ry="18"/>
<text text-anchor="middle" x="239.14" y="-68.9" font-family="Arial" font-size="12.00" fill="#ffffff">repository.py</text>
</g>
<!-- node_1_config&#45;&gt;node_4_repository_py -->
<g id="edge3" class="edge">
<title>node_1_config&#45;&gt;node_4_repository_py</title>
<path fill="none" stroke="#32cd32" stroke-width="1.2" d="M89.37,-94.96C113.61,-91.22 150.46,-85.53 181.42,-80.75"/>
<polygon fill="#32cd32" stroke="#32cd32" stroke-width="1.2" points="182.32,-84.16 191.67,-79.17 181.26,-77.24 182.32,-84.16"/>
</g>
<!-- node_5_visualization_py -->
<g id="node5" class="node">
<title>node_5_visualization_py</title>
<ellipse fill="#444444" stroke="#ff00cc" stroke-width="1.5" cx="239.14" cy="-18" rx="60.89" ry="18"/>
<text text-anchor="middle" x="239.14" y="-14.9" font-family="Arial" font-size="12.00" fill="#ffffff">visualization.py</text>
</g>
<!-- node_1_config&#45;&gt;node_5_visualization_py -->
<g id="edge4" class="edge">
<title>node_1_config&#45;&gt;node_5_visualization_py</title>
<path fill="none" stroke="#32cd32" stroke-width="1.2" d="M89.35,-82.83C108.55,-71.37 135.51,-56.11 160.35,-45 168.78,-41.23 177.92,-37.64 186.86,-34.38"/>
<polygon fill="#32cd32" stroke="#32cd32" stroke-width="1.2" points="188.19,-37.62 196.44,-30.98 185.85,-31.03 188.19,-37.62"/>
</g>
<!-- node_6_repomixr -->
<g id="node6" class="node">
<title>node_6_repomixr</title>
<path fill="#1e90ff" stroke="#ff00cc" stroke-width="1.5" d="M83.17,-387C83.17,-387 41.17,-387 41.17,-387 35.17,-387 29.17,-381 29.17,-375 29.17,-375 29.17,-363 29.17,-363 29.17,-357 35.17,-351 41.17,-351 41.17,-351 83.17,-351 83.17,-351 89.17,-351 95.17,-357 95.17,-363 95.17,-363 95.17,-375 95.17,-375 95.17,-381 89.17,-387 83.17,-387"/>
<text text-anchor="middle" x="62.17" y="-365.9" font-family="Arial" font-size="12.00" fill="#ffffff">repomixr/</text>
</g>
<!-- node_7_docs -->
<g id="node7" class="node">
<title>node_7_docs</title>
<path fill="#1e90ff" stroke="#33ccff" stroke-width="1.5" d="M254.14,-711C254.14,-711 224.14,-711 224.14,-711 218.14,-711 212.14,-705 212.14,-699 212.14,-699 212.14,-687 212.14,-687 212.14,-681 218.14,-675 224.14,-675 224.14,-675 254.14,-675 254.14,-675 260.14,-675 266.14,-681 266.14,-687 266.14,-687 266.14,-699 266.14,-699 266.14,-705 260.14,-711 254.14,-711"/>
<text text-anchor="middle" x="239.14" y="-689.9" font-family="Arial" font-size="12.00" fill="#ffffff">docs/</text>
</g>
<!-- node_6_repomixr&#45;&gt;node_7_docs -->
<g id="edge5" class="edge">
<title>node_6_repomixr&#45;&gt;node_7_docs</title>
<path fill="none" stroke="#32cd32" stroke-width="1.2" d="M73.08,-387.35C102.38,-441.59 188.68,-601.41 223.42,-665.73"/>
<polygon fill="#32cd32" stroke="#32cd32" stroke-width="1.2" points="220.51,-667.72 228.34,-674.85 226.67,-664.39 220.51,-667.72"/>
</g>
<!-- node_16_workflow -->
<g id="node16" class="node">
<title>node_16_workflow</title>
<path fill="#1e90ff" stroke="#ff00cc" stroke-width="1.5" d="M260.64,-468C260.64,-468 217.64,-468 217.64,-468 211.64,-468 205.64,-462 205.64,-456 205.64,-456 205.64,-444 205.64,-444 205.64,-438 211.64,-432 217.64,-432 217.64,-432 260.64,-432 260.64,-432 266.64,-432 272.64,-438 272.64,-444 272.64,-444 272.64,-456 272.64,-456 272.64,-462 266.64,-468 260.64,-468"/>
<text text-anchor="middle" x="239.14" y="-446.9" font-family="Arial" font-size="12.00" fill="#ffffff">workflow/</text>
</g>
<!-- node_6_repomixr&#45;&gt;node_16_workflow -->
<g id="edge14" class="edge">
<title>node_6_repomixr&#45;&gt;node_16_workflow</title>
<path fill="none" stroke="#32cd32" stroke-width="1.2" d="M92.69,-387.16C111.6,-398.35 136.92,-412.52 160.35,-423 171.67,-428.06 184.24,-432.79 195.93,-436.84"/>
<polygon fill="#32cd32" stroke="#32cd32" stroke-width="1.2" points="194.89,-440.18 205.48,-440.06 197.13,-433.55 194.89,-440.18"/>
</g>
<!-- node_20___init___py -->
<g id="node20" class="node">
<title>node_20___init___py</title>
<ellipse fill="#444444" stroke="#00ffcc" stroke-width="1.5" cx="239.14" cy="-396" rx="46.34" ry="18"/>
<text text-anchor="middle" x="239.14" y="-392.9" font-family="Arial" font-size="12.00" fill="#ffffff">__init__.py</text>
</g>
<!-- node_6_repomixr&#45;&gt;node_20___init___py -->
<g id="edge18" class="edge">
<title>node_6_repomixr&#45;&gt;node_20___init___py</title>
<path fill="none" stroke="#32cd32" stroke-width="1.2" d="M95.27,-373.95C120.59,-377.86 156.45,-383.39 185.9,-387.94"/>
<polygon fill="#32cd32" stroke="#32cd32" stroke-width="1.2" points="185.61,-391.43 196.02,-389.5 186.67,-384.52 185.61,-391.43"/>
</g>
<!-- node_21_repomixr_py -->
<g id="node21" class="node">
<title>node_21_repomixr_py</title>
<ellipse fill="#444444" stroke="#33ccff" stroke-width="1.5" cx="239.14" cy="-342" rx="48.76" ry="18"/>
<text text-anchor="middle" x="239.14" y="-338.9" font-family="Arial" font-size="12.00" fill="#ffffff">repomixr.py</text>
</g>
<!-- node_6_repomixr&#45;&gt;node_21_repomixr_py -->
<g id="edge19" class="edge">
<title>node_6_repomixr&#45;&gt;node_21_repomixr_py</title>
<path fill="none" stroke="#32cd32" stroke-width="1.2" d="M95.27,-364.05C120.07,-360.22 154.95,-354.84 184.04,-350.35"/>
<polygon fill="#32cd32" stroke="#32cd32" stroke-width="1.2" points="184.72,-353.79 194.07,-348.8 183.65,-346.87 184.72,-353.79"/>
</g>
<!-- node_22_repos_txt -->
<g id="node22" class="node">
<title>node_22_repos_txt</title>
<ellipse fill="#444444" stroke="#ff00cc" stroke-width="1.5" cx="239.14" cy="-288" rx="38.33" ry="18"/>
<text text-anchor="middle" x="239.14" y="-284.9" font-family="Arial" font-size="12.00" fill="#ffffff">repos.txt</text>
</g>
<!-- node_6_repomixr&#45;&gt;node_22_repos_txt -->
<g id="edge20" class="edge">
<title>node_6_repomixr&#45;&gt;node_22_repos_txt</title>
<path fill="none" stroke="#32cd32" stroke-width="1.2" d="M92.69,-350.84C111.6,-339.65 136.92,-325.48 160.35,-315 171.97,-309.8 184.92,-304.95 196.87,-300.84"/>
<polygon fill="#32cd32" stroke="#32cd32" stroke-width="1.2" points="198.26,-304.06 206.62,-297.56 196.03,-297.43 198.26,-304.06"/>
</g>
<!-- node_23_requirements_txt -->
<g id="node23" class="node">
<title>node_23_requirements_txt</title>
<ellipse fill="#444444" stroke="#ff3366" stroke-width="1.5" cx="239.14" cy="-234" rx="62.35" ry="18"/>
<text text-anchor="middle" x="239.14" y="-230.9" font-family="Arial" font-size="12.00" fill="#ffffff">requirements.txt</text>
</g>
<!-- node_6_repomixr&#45;&gt;node_23_requirements_txt -->
<g id="edge21" class="edge">
<title>node_6_repomixr&#45;&gt;node_23_requirements_txt</title>
<path fill="none" stroke="#32cd32" stroke-width="1.2" d="M75.16,-350.74C91.67,-326.92 123.58,-285.41 160.35,-261 167.12,-256.5 174.73,-252.67 182.46,-249.43"/>
<polygon fill="#32cd32" stroke="#32cd32" stroke-width="1.2" points="183.85,-252.65 191.9,-245.77 181.31,-246.12 183.85,-252.65"/>
</g>
<!-- node_8_commands_md -->
<g id="node8" class="node">
<title>node_8_commands_md</title>
<ellipse fill="#444444" stroke="#ff3366" stroke-width="1.5" cx="438.89" cy="-909" rx="58.46" ry="18"/>
<text text-anchor="middle" x="438.89" y="-905.9" font-family="Arial" font-size="12.00" fill="#ffffff">commands.md</text>
</g>
<!-- node_7_docs&#45;&gt;node_8_commands_md -->
<g id="edge6" class="edge">
<title>node_7_docs&#45;&gt;node_8_commands_md</title>
<path fill="none" stroke="#32cd32" stroke-width="1.2" d="M266.5,-695.6C283.55,-698.67 304.91,-705.37 317.94,-720 367,-775.07 304.25,-827.49 353.94,-882 360.01,-888.66 367.72,-893.68 376.01,-897.47"/>
<polygon fill="#32cd32" stroke="#32cd32" stroke-width="1.2" points="374.96,-900.82 385.55,-901.25 377.54,-894.31 374.96,-900.82"/>
</g>
<!-- node_9_prompt_v1_md -->
<g id="node9" class="node">
<title>node_9_prompt_v1_md</title>
<ellipse fill="#444444" stroke="#ffff00" stroke-width="1.5" cx="438.89" cy="-855" rx="54.58" ry="18"/>
<text text-anchor="middle" x="438.89" y="-851.9" font-family="Arial" font-size="12.00" fill="#ffffff">prompt&#45;v1.md</text>
</g>
<!-- node_7_docs&#45;&gt;node_9_prompt_v1_md -->
<g id="edge7" class="edge">
<title>node_7_docs&#45;&gt;node_9_prompt_v1_md</title>
<path fill="none" stroke="#32cd32" stroke-width="1.2" d="M266.39,-696.12C283.17,-699.41 304.28,-706.17 317.94,-720 353.5,-756 317.97,-792.41 353.94,-828 361.04,-835.03 369.98,-840.23 379.35,-844.07"/>
<polygon fill="#32cd32" stroke="#32cd32" stroke-width="1.2" points="378.22,-847.39 388.82,-847.48 380.59,-840.8 378.22,-847.39"/>
</g>
<!-- node_10_prompt_v2_md -->
<g id="node10" class="node">
<title>node_10_prompt_v2_md</title>
<ellipse fill="#444444" stroke="#ff3366" stroke-width="1.5" cx="438.89" cy="-801" rx="54.58" ry="18"/>
<text text-anchor="middle" x="438.89" y="-797.9" font-family="Arial" font-size="12.00" fill="#ffffff">prompt&#45;v2.md</text>
</g>
<!-- node_7_docs&#45;&gt;node_10_prompt_v2_md -->
<g id="edge8" class="edge">
<title>node_7_docs&#45;&gt;node_10_prompt_v2_md</title>
<path fill="none" stroke="#32cd32" stroke-width="1.2" d="M266.35,-697.65C282.49,-701.53 302.9,-708.37 317.94,-720 340.75,-737.65 330.92,-756.61 353.94,-774 362.09,-780.16 371.7,-784.94 381.45,-788.65"/>
<polygon fill="#32cd32" stroke="#32cd32" stroke-width="1.2" points="380.61,-792.06 391.2,-792.01 382.89,-785.44 380.61,-792.06"/>
</g>
<!-- node_11_repos_chatgpt_md -->
<g id="node11" class="node">
<title>node_11_repos_chatgpt_md</title>
<ellipse fill="#444444" stroke="#00ff99" stroke-width="1.5" cx="438.89" cy="-747" rx="67.2" ry="18"/>
<text text-anchor="middle" x="438.89" y="-743.9" font-family="Arial" font-size="12.00" fill="#ffffff">repos&#45;chatgpt.md</text>
</g>
<!-- node_7_docs&#45;&gt;node_11_repos_chatgpt_md -->
<g id="edge9" class="edge">
<title>node_7_docs&#45;&gt;node_11_repos_chatgpt_md</title>
<path fill="none" stroke="#32cd32" stroke-width="1.2" d="M266.4,-700.17C295.53,-708.12 343.39,-721.19 381.16,-731.51"/>
<polygon fill="#32cd32" stroke="#32cd32" stroke-width="1.2" points="380.45,-734.94 391.02,-734.2 382.3,-728.19 380.45,-734.94"/>
</g>
<!-- node_12_repos_claude_md -->
<g id="node12" class="node">
<title>node_12_repos_claude_md</title>
<ellipse fill="#444444" stroke="#00ffcc" stroke-width="1.5" cx="438.89" cy="-693" rx="65.01" ry="18"/>
<text text-anchor="middle" x="438.89" y="-689.9" font-family="Arial" font-size="12.00" fill="#ffffff">repos&#45;claude.md</text>
</g>
<!-- node_7_docs&#45;&gt;node_12_repos_claude_md -->
<g id="edge10" class="edge">
<title>node_7_docs&#45;&gt;node_12_repos_claude_md</title>
<path fill="none" stroke="#32cd32" stroke-width="1.2" d="M266.4,-693C291.06,-693 329.15,-693 363.18,-693"/>
<polygon fill="#32cd32" stroke="#32cd32" stroke-width="1.2" points="363.59,-696.5 373.59,-693 363.59,-689.5 363.59,-696.5"/>
</g>
<!-- node_13_repos_consolidated_md -->
<g id="node13" class="node">
<title>node_13_repos_consolidated_md</title>
<ellipse fill="#444444" stroke="#33ccff" stroke-width="1.5" cx="438.89" cy="-639" rx="84.9" ry="18"/>
<text text-anchor="middle" x="438.89" y="-635.9" font-family="Arial" font-size="12.00" fill="#ffffff">repos&#45;consolidated.md</text>
</g>
<!-- node_7_docs&#45;&gt;node_13_repos_consolidated_md -->
<g id="edge11" class="edge">
<title>node_7_docs&#45;&gt;node_13_repos_consolidated_md</title>
<path fill="none" stroke="#32cd32" stroke-width="1.2" d="M266.4,-685.83C294.27,-678.22 339.3,-665.92 376.23,-655.84"/>
<polygon fill="#32cd32" stroke="#32cd32" stroke-width="1.2" points="377.19,-659.2 385.91,-653.19 375.34,-652.45 377.19,-659.2"/>
</g>
<!-- node_14_repos_grok_md -->
<g id="node14" class="node">
<title>node_14_repos_grok_md</title>
<ellipse fill="#444444" stroke="#ff3366" stroke-width="1.5" cx="438.89" cy="-585" rx="57.5" ry="18"/>
<text text-anchor="middle" x="438.89" y="-581.9" font-family="Arial" font-size="12.00" fill="#ffffff">repos&#45;grok.md</text>
</g>
<!-- node_7_docs&#45;&gt;node_14_repos_grok_md -->
<g id="edge12" class="edge">
<title>node_7_docs&#45;&gt;node_14_repos_grok_md</title>
<path fill="none" stroke="#32cd32" stroke-width="1.2" d="M261.52,-674.71C283.48,-656.69 319.26,-629.39 353.94,-612 363.48,-607.21 374.05,-603.03 384.38,-599.48"/>
<polygon fill="#32cd32" stroke="#32cd32" stroke-width="1.2" points="385.76,-602.71 394.17,-596.27 383.58,-596.06 385.76,-602.71"/>
</g>
<!-- node_15_repos_perplexity_md -->
<g id="node15" class="node">
<title>node_15_repos_perplexity_md</title>
<ellipse fill="#444444" stroke="#ff00cc" stroke-width="1.5" cx="438.89" cy="-531" rx="74.47" ry="18"/>
<text text-anchor="middle" x="438.89" y="-527.9" font-family="Arial" font-size="12.00" fill="#ffffff">repos&#45;perplexity.md</text>
</g>
<!-- node_7_docs&#45;&gt;node_15_repos_perplexity_md -->
<g id="edge13" class="edge">
<title>node_7_docs&#45;&gt;node_15_repos_perplexity_md</title>
<path fill="none" stroke="#32cd32" stroke-width="1.2" d="M250.68,-674.9C268.39,-646.02 306.84,-589.59 353.94,-558 360.38,-553.68 367.55,-550.02 374.92,-546.91"/>
<polygon fill="#32cd32" stroke="#32cd32" stroke-width="1.2" points="376.25,-550.15 384.31,-543.28 373.72,-543.62 376.25,-550.15"/>
</g>
<!-- node_17_s1_prompt_md -->
<g id="node17" class="node">
<title>node_17_s1_prompt_md</title>
<ellipse fill="#444444" stroke="#ff3366" stroke-width="1.5" cx="438.89" cy="-477" rx="54.58" ry="18"/>
<text text-anchor="middle" x="438.89" y="-473.9" font-family="Arial" font-size="12.00" fill="#ffffff">s1&#45;prompt.md</text>
</g>
<!-- node_16_workflow&#45;&gt;node_17_s1_prompt_md -->
<g id="edge15" class="edge">
<title>node_16_workflow&#45;&gt;node_17_s1_prompt_md</title>
<path fill="none" stroke="#32cd32" stroke-width="1.2" d="M272.8,-454.46C301.35,-458.36 343.55,-464.12 378.13,-468.84"/>
<polygon fill="#32cd32" stroke="#32cd32" stroke-width="1.2" points="377.74,-472.32 388.13,-470.21 378.69,-465.38 377.74,-472.32"/>
</g>
<!-- node_18_s2_follow_up_md -->
<g id="node18" class="node">
<title>node_18_s2_follow_up_md</title>
<ellipse fill="#444444" stroke="#00ffcc" stroke-width="1.5" cx="438.89" cy="-423" rx="62.35" ry="18"/>
<text text-anchor="middle" x="438.89" y="-419.9" font-family="Arial" font-size="12.00" fill="#ffffff">s2&#45;follow&#45;up.md</text>
</g>
<!-- node_16_workflow&#45;&gt;node_18_s2_follow_up_md -->
<g id="edge16" class="edge">
<title>node_16_workflow&#45;&gt;node_18_s2_follow_up_md</title>
<path fill="none" stroke="#32cd32" stroke-width="1.2" d="M272.8,-445.54C299.74,-441.86 338.82,-436.53 372.2,-431.97"/>
<polygon fill="#32cd32" stroke="#32cd32" stroke-width="1.2" points="372.92,-435.4 382.35,-430.58 371.97,-428.47 372.92,-435.4"/>
</g>
<!-- node_19_s3_xml_parser_py -->
<g id="node19" class="node">
<title>node_19_s3_xml_parser_py</title>
<ellipse fill="#444444" stroke="#33ccff" stroke-width="1.5" cx="438.89" cy="-369" rx="64.77" ry="18"/>
<text text-anchor="middle" x="438.89" y="-365.9" font-family="Arial" font-size="12.00" fill="#ffffff">s3&#45;xml&#45;parser.py</text>
</g>
<!-- node_16_workflow&#45;&gt;node_19_s3_xml_parser_py -->
<g id="edge17" class="edge">
<title>node_16_workflow&#45;&gt;node_19_s3_xml_parser_py</title>
<path fill="none" stroke="#32cd32" stroke-width="1.2" d="M272.88,-441.12C287.14,-436.63 303.8,-430.52 317.94,-423 335.6,-413.61 336.17,-405.19 353.94,-396 362.42,-391.61 371.74,-387.76 381,-384.45"/>
<polygon fill="#32cd32" stroke="#32cd32" stroke-width="1.2" points="382.25,-387.72 390.59,-381.19 380,-381.09 382.25,-387.72"/>
</g>
<!-- node_24_utils -->
<g id="node24" class="node">
<title>node_24_utils</title>
<path fill="#1e90ff" stroke="#33ccff" stroke-width="1.5" d="M77.17,-846C77.17,-846 47.17,-846 47.17,-846 41.17,-846 35.17,-840 35.17,-834 35.17,-834 35.17,-822 35.17,-822 35.17,-816 41.17,-810 47.17,-810 47.17,-810 77.17,-810 77.17,-810 83.17,-810 89.17,-816 89.17,-822 89.17,-822 89.17,-834 89.17,-834 89.17,-840 83.17,-846 77.17,-846"/>
<text text-anchor="middle" x="62.17" y="-824.9" font-family="Arial" font-size="12.00" fill="#ffffff">utils/</text>
</g>
<!-- node_25___init___py -->
<g id="node25" class="node">
<title>node_25___init___py</title>
<ellipse fill="#444444" stroke="#00ffcc" stroke-width="1.5" cx="239.14" cy="-909" rx="46.34" ry="18"/>
<text text-anchor="middle" x="239.14" y="-905.9" font-family="Arial" font-size="12.00" fill="#ffffff">__init__.py</text>
</g>
<!-- node_24_utils&#45;&gt;node_25___init___py -->
<g id="edge22" class="edge">
<title>node_24_utils&#45;&gt;node_25___init___py</title>
<path fill="none" stroke="#32cd32" stroke-width="1.2" d="M89.42,-838.03C100.48,-842.66 113.33,-848.55 124.35,-855 141.61,-865.1 142.69,-872.61 160.35,-882 170.11,-887.19 181.07,-891.71 191.62,-895.49"/>
<polygon fill="#32cd32" stroke="#32cd32" stroke-width="1.2" points="190.55,-898.82 201.14,-898.75 192.81,-892.2 190.55,-898.82"/>
</g>
<!-- node_26_cli_common_py -->
<g id="node26" class="node">
<title>node_26_cli_common_py</title>
<ellipse fill="#444444" stroke="#ff00cc" stroke-width="1.5" cx="239.14" cy="-855" rx="59.92" ry="18"/>
<text text-anchor="middle" x="239.14" y="-851.9" font-family="Arial" font-size="12.00" fill="#ffffff">cli_common.py</text>
</g>
<!-- node_24_utils&#45;&gt;node_26_cli_common_py -->
<g id="edge23" class="edge">
<title>node_24_utils&#45;&gt;node_26_cli_common_py</title>
<path fill="none" stroke="#32cd32" stroke-width="1.2" d="M89.37,-832.04C112.15,-835.56 146.08,-840.79 175.79,-845.38"/>
<polygon fill="#32cd32" stroke="#32cd32" stroke-width="1.2" points="175.26,-848.84 185.67,-846.9 176.33,-841.92 175.26,-848.84"/>
</g>
<!-- node_27_directory_scanner_py -->
<g id="node27" class="node">
<title>node_27_directory_scanner_py</title>
<ellipse fill="#444444" stroke="#33ccff" stroke-width="1.5" cx="239.14" cy="-801" rx="78.59" ry="18"/>
<text text-anchor="middle" x="239.14" y="-797.9" font-family="Arial" font-size="12.00" fill="#ffffff">directory_scanner.py</text>
</g>
<!-- node_24_utils&#45;&gt;node_27_directory_scanner_py -->
<g id="edge24" class="edge">
<title>node_24_utils&#45;&gt;node_27_directory_scanner_py</title>
<path fill="none" stroke="#32cd32" stroke-width="1.2" d="M89.37,-823.96C108.98,-820.93 136.85,-816.63 163.18,-812.57"/>
<polygon fill="#32cd32" stroke="#32cd32" stroke-width="1.2" points="163.82,-816.01 173.17,-811.03 162.75,-809.09 163.82,-816.01"/>
</g>
<!-- node_28_file_operations_py -->
<g id="node28" class="node">
<title>node_28_file_operations_py</title>
<ellipse fill="#444444" stroke="#ff3366" stroke-width="1.5" cx="239.14" cy="-747" rx="68.16" ry="18"/>
<text text-anchor="middle" x="239.14" y="-743.9" font-family="Arial" font-size="12.00" fill="#ffffff">file_operations.py</text>
</g>
<!-- node_24_utils&#45;&gt;node_28_file_operations_py -->
<g id="edge25" class="edge">
<title>node_24_utils&#45;&gt;node_28_file_operations_py</title>
<path fill="none" stroke="#32cd32" stroke-width="1.2" d="M89.35,-811.83C108.55,-800.37 135.51,-785.11 160.35,-774 168.13,-770.52 176.52,-767.19 184.79,-764.14"/>
<polygon fill="#32cd32" stroke="#32cd32" stroke-width="1.2" points="186.19,-767.36 194.42,-760.69 183.82,-760.77 186.19,-767.36"/>
</g>
<!-- node_29_flowcharter_py -->
<g id="node29" class="node">
<title>node_29_flowcharter_py</title>
<ellipse fill="#444444" stroke="#ffff00" stroke-width="1.5" cx="62.17" cy="-882" rx="56.04" ry="18"/>
<text text-anchor="middle" x="62.17" y="-878.9" font-family="Arial" font-size="12.00" fill="#ffffff">flowcharter.py</text>
</g>
<!-- node_30_mermaider_py -->
<g id="node30" class="node">
<title>node_30_mermaider_py</title>
<ellipse fill="#444444" stroke="#ff3366" stroke-width="1.5" cx="62.17" cy="-936" rx="54.58" ry="18"/>
<text text-anchor="middle" x="62.17" y="-932.9" font-family="Arial" font-size="12.00" fill="#ffffff">mermaider.py</text>
</g>
<!-- node_31_pyproject_toml -->
<g id="node31" class="node">
<title>node_31_pyproject_toml</title>
<ellipse fill="#444444" stroke="#ff00cc" stroke-width="1.5" cx="62.17" cy="-990" rx="56.04" ry="18"/>
<text text-anchor="middle" x="62.17" y="-986.9" font-family="Arial" font-size="12.00" fill="#ffffff">pyproject.toml</text>
</g>
<!-- node_32_requirements_txt -->
<g id="node32" class="node">
<title>node_32_requirements_txt</title>
<ellipse fill="#444444" stroke="#ff3366" stroke-width="1.5" cx="62.17" cy="-1044" rx="62.35" ry="18"/>
<text text-anchor="middle" x="62.17" y="-1040.9" font-family="Arial" font-size="12.00" fill="#ffffff">requirements.txt</text>
</g>
<!-- node_33_run_tests_py -->
<g id="node33" class="node">
<title>node_33_run_tests_py</title>
<ellipse fill="#444444" stroke="#00ff99" stroke-width="1.5" cx="62.17" cy="-1098" rx="49.73" ry="18"/>
<text text-anchor="middle" x="62.17" y="-1094.9" font-family="Arial" font-size="12.00" fill="#ffffff">run_tests.py</text>
</g>
<!-- node_34_setup_py -->
<g id="node34" class="node">
<title>node_34_setup_py</title>
<ellipse fill="#444444" stroke="#ff00cc" stroke-width="1.5" cx="62.17" cy="-1152" rx="38.33" ry="18"/>
<text text-anchor="middle" x="62.17" y="-1148.9" font-family="Arial" font-size="12.00" fill="#ffffff">setup.py</text>
</g>
<!-- node_35_uv_lock -->
<g id="node35" class="node">
<title>node_35_uv_lock</title>
<ellipse fill="#444444" stroke="#00ffcc" stroke-width="1.5" cx="62.17" cy="-1206" rx="32.75" ry="18"/>
<text text-anchor="middle" x="62.17" y="-1202.9" font-family="Arial" font-size="12.00" fill="#ffffff">uv.lock</text>
</g>
</g>
</svg>
